<svg width="80" height="80" viewBox="0 0 80 80" fill="none" xmlns="http://www.w3.org/2000/svg">
<path d="M39.8973 19.8774C40.7196 18.9415 41.5124 17.9756 42.3641 17.1C44.9147 14.5578 48.2266 12.9772 51.7616 12.6155C55.2965 12.2537 58.8468 13.1315 61.8348 15.1069C63.8176 16.374 65.5227 18.0513 66.8421 20.0314C68.1616 22.0116 69.0665 24.2515 69.4996 26.6101C70.1086 29.3708 70.1624 32.2302 69.6574 35.013C69.1524 37.7959 68.0992 40.4438 66.5629 42.7931C64.4926 46.0154 62.0137 48.9392 59.1916 51.488C53.6999 56.4998 48.1494 61.4208 42.5989 66.3722C42.2697 66.7285 41.8734 67.0128 41.4342 67.2066C40.9949 67.4005 40.522 67.5 40.044 67.5C39.566 67.5 39.093 67.4005 38.6537 67.2066C38.2145 67.0128 37.8182 66.7285 37.489 66.3722C31.9385 61.4208 26.359 56.4997 20.8673 51.4577C18.0813 48.932 15.6324 46.0392 13.5842 42.8536C10.8236 38.7436 9.59336 33.7492 10.1186 28.7838C10.4895 24.1305 12.5937 19.8041 15.9921 16.7071C17.6455 15.1599 19.6009 13.9936 21.728 13.2855C23.855 12.5774 26.1046 12.3443 28.3264 12.6015C30.5913 12.8318 32.7824 13.5564 34.7526 14.728C36.7229 15.8996 38.4267 17.491 39.7503 19.3946C39.8315 19.5378 39.9301 19.6694 40.044 19.7867C40.044 19.7867 39.868 19.8774 39.8973 19.8774Z" fill="#1D1D1D"/>
</svg>
