<svg width="80" height="80" viewBox="0 0 80 80" fill="none" xmlns="http://www.w3.org/2000/svg">
<path d="M10 39.9655C10.0061 36.0184 10.7905 32.1109 12.3088 28.4675C13.827 24.8241 16.0491 21.5164 18.8477 18.733C21.6462 15.9495 24.9664 13.7451 28.618 12.2467C32.2696 10.7483 36.1809 9.9849 40.128 10.0002C48.0633 10.0372 55.6612 13.2156 61.2593 18.8399C66.8574 24.4642 70.0001 32.0768 70 40.0122C69.9939 43.9604 69.2092 47.8683 67.6912 51.5131C66.1733 55.1578 63.9518 58.4674 61.1535 61.2527C58.3552 64.038 55.0351 66.2442 51.3834 67.7452C47.7317 69.2462 43.8199 70.0125 39.8717 70.0002C31.9362 69.951 24.3419 66.7656 18.7458 61.1389C13.1497 55.5123 10.006 47.9012 10 39.9655ZM39.9184 58.9089C43.2156 58.9079 46.4577 58.0639 49.3369 56.4571C52.2161 54.8503 54.6367 52.5342 56.3687 49.7285C56.5825 49.4954 56.7416 49.2175 56.834 48.915C56.9265 48.6126 56.9501 48.2931 56.9032 47.9804C56.8562 47.6676 56.7401 47.3697 56.563 47.1077C56.3858 46.8457 56.1522 46.6261 55.8795 46.466C54.7843 45.8136 53.5495 46.2101 52.7805 47.4917C51.4457 49.6958 49.5649 51.5184 47.32 52.7833C45.075 54.0483 42.5418 54.713 39.965 54.713C37.3882 54.713 34.855 54.0483 32.6101 52.7833C30.3651 51.5184 28.4843 49.6958 27.1495 47.4917C26.2873 46.1868 25.1687 45.7903 24.0736 46.466C23.7991 46.6241 23.5635 46.8421 23.3841 47.1032C23.2047 47.3642 23.086 47.6618 23.0368 47.9747C22.9877 48.2876 23.0093 48.6076 23.1 48.911C23.1907 49.2145 23.3482 49.4939 23.561 49.7285C25.2831 52.5223 27.6885 54.8309 30.5505 56.4372C33.4124 58.0435 36.6365 58.8943 39.9184 58.9089ZM30.2484 25.0526C28.4354 25.0487 26.6892 25.7357 25.3646 26.9736C24.0401 28.2116 23.2369 29.9078 23.1185 31.7169C23.1185 33.2082 23.7707 34.0466 24.9824 34.2563C26.194 34.466 27.1494 33.604 27.3125 32.0429C27.3567 31.5095 27.5447 30.9982 27.8566 30.5632C28.1684 30.1283 28.5924 29.7859 29.0834 29.5728C29.5303 29.3888 30.015 29.3157 30.4964 29.3589C30.9778 29.4021 31.4416 29.5607 31.8486 29.8214C32.2557 30.0821 32.5939 30.437 32.8345 30.8562C33.0751 31.2754 33.2112 31.7465 33.231 32.2294C33.2193 32.5256 33.2742 32.8203 33.3917 33.0924C33.5092 33.3645 33.6863 33.6073 33.9099 33.8018C34.1336 33.9964 34.3981 34.1378 34.6839 34.2165C34.9696 34.2953 35.2694 34.3089 35.5611 34.2563C36.8193 34.1165 37.4485 33.1848 37.3553 31.6702C37.259 29.8614 36.4641 28.1603 35.1384 26.9259C33.8127 25.6914 32.0596 25.0198 30.2484 25.0526ZM49.7746 25.0526C48.8411 25.0277 47.9121 25.1903 47.0423 25.5304C46.1726 25.8705 45.3798 26.3812 44.7108 27.0328C44.0418 27.6844 43.5102 28.4637 43.1473 29.3242C42.7844 30.1847 42.5977 31.109 42.598 32.0429C42.559 32.3858 42.6062 32.7331 42.7354 33.0532C42.8646 33.3733 43.0714 33.6565 43.3376 33.8763C43.6037 34.0962 43.9207 34.2462 44.2594 34.3127C44.5982 34.3791 44.948 34.3594 45.2774 34.2563C45.7088 34.0955 46.083 33.811 46.3526 33.4377C46.6221 33.0645 46.775 32.6196 46.792 32.1595C46.7973 31.7687 46.8826 31.3835 47.0423 31.0269C47.2021 30.6702 47.4332 30.35 47.7213 30.0859C48.0094 29.8219 48.3482 29.6191 48.7174 29.4909C49.0865 29.3627 49.4782 29.3115 49.8679 29.3401C51.4524 29.3401 52.4309 30.4353 52.6872 32.2994C52.6948 32.5888 52.7628 32.8736 52.8869 33.1351C53.0111 33.3966 53.1888 33.629 53.4083 33.8177C53.6278 34.0065 53.8843 34.1471 54.1615 34.2307C54.4386 34.3144 54.7301 34.3389 55.0173 34.303C55.2959 34.3007 55.571 34.2411 55.8254 34.1278C56.0799 34.0144 56.3084 33.8498 56.4964 33.6442C56.6844 33.4387 56.8279 33.1966 56.9182 32.9331C57.0085 32.6696 57.0436 32.3905 57.0212 32.1128C57.0121 31.1725 56.8172 30.2435 56.4475 29.3788C56.0778 28.5142 55.5407 27.7311 54.8672 27.0749C54.1936 26.4187 53.3968 25.9019 52.5229 25.5549C51.6489 25.2078 50.7149 25.0372 49.7746 25.0526Z" fill="#1D1D1D"/>
</svg>
